<?xml version="1.0" standalone="no"?>
<!DOCTYPE svg PUBLIC "-//W3C//DTD SVG 20010904//EN"
 "http://www.w3.org/TR/2001/REC-SVG-20010904/DTD/svg10.dtd">
<svg version="1.0" xmlns="http://www.w3.org/2000/svg"
 width="32.000000pt" height="32.000000pt" viewBox="0 0 32.000000 32.000000"
 preserveAspectRatio="xMidYMid meet">
<metadata>
Created by potrace 1.13, written by Peter Selinger 2001-2015
</metadata>
<g transform="translate(0.000000,32.000000) scale(0.100000,-0.100000)"
fill="#000000" stroke="none">
<path d="M126 309 c-42 -12 -76 -48 -76 -80 0 -15 -4 -30 -9 -33 -15 -10 -45
-116 -35 -126 5 -5 32 -21 59 -36 68 -36 124 -35 195 3 72 39 73 47 24 146 -8
16 -14 38 -14 50 -1 54 -79 95 -144 76z m66 -124 c34 -29 41 -30 58 -10 15 17
30 11 30 -13 0 -13 -2 -14 -9 -4 -6 11 -10 10 -15 -3 -3 -10 -1 -24 5 -31 9
-11 8 -14 -5 -14 -10 0 -14 -5 -11 -10 10 -16 35 8 28 27 -5 13 -3 13 15 4 13
-7 22 -21 22 -36 0 -25 -21 -46 -28 -27 -2 6 -13 0 -26 -15 -21 -24 -31 -27
-92 -29 -62 -2 -70 1 -95 26 -17 16 -30 23 -32 16 -3 -8 -8 -8 -17 1 -16 15
-6 59 16 67 11 4 15 2 11 -8 -7 -18 18 -42 28 -26 3 5 1 10 -5 10 -7 0 -10 7
-6 15 3 8 3 22 -1 31 -5 13 -7 13 -14 2 -7 -10 -9 -10 -9 3 0 25 12 30 31 13
19 -17 44 -10 69 20 16 21 17 20 52 -9z"/>
</g>
</svg>
